<svg height="512pt" viewBox="-38 0 512 512" width="512pt" xmlns="http://www.w3.org/2000/svg"><path d="m180 222c-63.410156 0-115 51.589844-115 115s51.589844 115 115 115 115-51.589844 115-115-51.589844-115-115-115zm-82.601562 135c-1.554688-6.417969-2.398438-13.109375-2.398438-20s.84375-13.582031 2.398438-20h17.601562v40zm82.601562 65c-28.191406 0-53.207031-13.804688-68.679688-35h33.679688v-100h-33.679688c15.472657-21.195312 40.488282-35 68.679688-35 46.867188 0 85 38.132812 85 85s-38.132812 85-85 85zm0 0"/><path d="m336 0c-52.449219 0-95.589844 40.585938-99.679688 92h-236.320312v420h360v-314.917969c43.585938-10.777343 76-50.210937 76-97.082031 0-55.140625-44.859375-100-100-100zm-6 482h-300v-360h208.445312c9.625 42.703125 46.644532 75.144531 91.554688 77.816406zm6-312c-38.597656 0-70-31.402344-70-70s31.402344-70 70-70 70 31.402344 70 70-31.402344 70-70 70zm0 0"/><path d="m60 152h30v50h-30zm0 0"/><path d="m150 167c0 8.285156-6.714844 15-15 15s-15-6.714844-15-15 6.714844-15 15-15 15 6.714844 15 15zm0 0"/><path d="m301 80v30c7.109375 0 13.871094-1.5 20-4.1875v34.1875h30v-80h-30c0 11.027344-8.972656 20-20 20zm0 0"/></svg>