<svg height="512pt" viewBox="0 0 512 512" width="512pt" xmlns="http://www.w3.org/2000/svg"><path d="m271 221c0 8.285156-6.714844 15-15 15s-15-6.714844-15-15 6.714844-15 15-15 15 6.714844 15 15zm0 0"/><path d="m211 221c0 8.285156-6.714844 15-15 15s-15-6.714844-15-15 6.714844-15 15-15 15 6.714844 15 15zm0 0"/><path d="m331 221c0 8.285156-6.714844 15-15 15s-15-6.714844-15-15 6.714844-15 15-15 15 6.714844 15 15zm0 0"/><path d="m353 108.730469v-108.730469h-194v108.730469l-159 157v120.269531h512v-120.269531zm-30-78.730469v70h-134v-70zm159 326h-271v-30h-30v30h-30v-30h-30v30h-30v-30h-30v30h-31v-60h452zm-439.574219-90 137.730469-136h151.6875l137.730469 136zm0 0"/><path d="m245.652344 419.859375c3.449218 3.285156 5.347656 7.597656 5.347656 12.140625s-1.898438 8.855469-5.347656 12.140625c-9.449219 9-14.652344 21.027344-14.652344 33.859375s5.203125 24.859375 14.652344 33.859375l20.695312-21.71875c-3.449218-3.285156-5.347656-7.597656-5.347656-12.140625s1.898438-8.855469 5.347656-12.140625c9.449219-9 14.652344-21.027344 14.652344-33.859375s-5.203125-24.859375-14.652344-33.859375zm0 0"/><path d="m324.652344 419.859375c3.449218 3.285156 5.347656 7.597656 5.347656 12.140625s-1.898438 8.855469-5.347656 12.140625c-9.449219 9-14.652344 21.027344-14.652344 33.859375s5.203125 24.859375 14.652344 33.859375l20.695312-21.71875c-3.449218-3.285156-5.347656-7.597656-5.347656-12.140625s1.898438-8.855469 5.347656-12.140625c9.449219-9 14.652344-21.027344 14.652344-33.859375s-5.203125-24.859375-14.652344-33.859375zm0 0"/><path d="m166.652344 419.859375c3.449218 3.285156 5.347656 7.597656 5.347656 12.140625s-1.898438 8.855469-5.347656 12.140625c-9.449219 9-14.652344 21.027344-14.652344 33.859375s5.203125 24.859375 14.652344 33.859375l20.695312-21.71875c-3.449218-3.285156-5.347656-7.597656-5.347656-12.140625s1.898438-8.855469 5.347656-12.140625c9.449219-9 14.652344-21.027344 14.652344-33.859375s-5.203125-24.859375-14.652344-33.859375zm0 0"/><path d="m87.652344 419.859375c3.449218 3.285156 5.347656 7.597656 5.347656 12.140625s-1.898438 8.855469-5.347656 12.140625c-9.449219 9-14.652344 21.027344-14.652344 33.859375s5.203125 24.859375 14.652344 33.859375l20.695312-21.71875c-3.449218-3.285156-5.347656-7.597656-5.347656-12.140625s1.898438-8.855469 5.347656-12.140625c9.449219-9 14.652344-21.027344 14.652344-33.859375s-5.203125-24.859375-14.652344-33.859375zm0 0"/><path d="m403.652344 419.859375c3.449218 3.285156 5.347656 7.597656 5.347656 12.140625s-1.898438 8.855469-5.347656 12.140625c-9.449219 9-14.652344 21.027344-14.652344 33.859375s5.203125 24.859375 14.652344 33.859375l20.695312-21.71875c-3.449218-3.285156-5.347656-7.597656-5.347656-12.140625s1.898438-8.855469 5.347656-12.140625c9.449219-9 14.652344-21.027344 14.652344-33.859375s-5.203125-24.859375-14.652344-33.859375zm0 0"/></svg>