<?xml version="1.0" encoding="iso-8859-1"?>
<!-- Generator: Adobe Illustrator 19.0.0, SVG Export Plug-In . SVG Version: 6.00 Build 0)  -->
<svg version="1.1" id="Layer_1" xmlns="http://www.w3.org/2000/svg" xmlns:xlink="http://www.w3.org/1999/xlink" x="0px" y="0px"
	 viewBox="0 0 512 512" style="enable-background:new 0 0 512 512;" xml:space="preserve">
<g>
	<g>
		<path d="M500.363,57.649H11.637C5.21,57.649,0,62.86,0,69.286v54.053v83.786v235.589c0,6.426,5.21,11.637,11.637,11.637h488.726
			c6.427,0,11.637-5.211,11.637-11.637V207.125v-83.786V69.286C512,62.86,506.79,57.649,500.363,57.649z M488.726,431.077H23.274
			V218.762h465.452V431.077z M488.726,195.488H23.274V176.24H356.77c6.427,0,11.637-5.211,11.637-11.637
			c0-6.426-5.21-11.637-11.637-11.637H23.274v-17.99h465.452V195.488z M488.726,111.703H23.274v-30.78h465.452V111.703z"/>
	</g>
</g>
<g>
	<g>
		<path d="M408.129,162.335c-0.151-0.745-0.372-1.478-0.663-2.188c-0.291-0.699-0.652-1.373-1.071-2.002
			c-0.419-0.641-0.908-1.235-1.443-1.77c-2.7-2.711-6.714-3.945-10.508-3.189c-0.733,0.151-1.466,0.372-2.176,0.663
			c-0.698,0.291-1.373,0.652-2.002,1.071c-0.64,0.431-1.234,0.919-1.769,1.455c-2.164,2.164-3.41,5.167-3.41,8.227
			c0,0.755,0.07,1.524,0.221,2.269c0.151,0.746,0.372,1.479,0.663,2.177c0.291,0.71,0.652,1.385,1.071,2.013
			c0.431,0.64,0.919,1.234,1.455,1.769c0.535,0.536,1.129,1.025,1.769,1.443c0.628,0.419,1.303,0.78,2.002,1.071
			c0.71,0.291,1.443,0.524,2.176,0.663c0.756,0.151,1.524,0.233,2.281,0.233c3.06,0,6.063-1.245,8.227-3.411
			c0.535-0.535,1.024-1.129,1.443-1.769c0.419-0.628,0.78-1.303,1.071-2.013c0.291-0.698,0.512-1.43,0.663-2.175
			c0.151-0.746,0.233-1.514,0.233-2.269C408.362,163.847,408.28,163.078,408.129,162.335z"/>
	</g>
</g>
<g>
	<g>
		<path d="M351.147,230.81c-33.353,0-64.491,18.05-81.281,46.549H111.786c-3.246,0-6.344,1.356-8.547,3.74l-33.522,36.28
			c-4.11,4.448-4.122,11.305-0.024,15.767l33.133,36.087c0.922,1.004,2.014,1.84,3.226,2.466l26.863,13.894
			c3.353,1.735,7.339,1.734,10.692,0l21.555-11.149l21.555,11.149c3.354,1.734,7.339,1.734,10.692,0L221.756,373h48.262
			c16.921,28.718,47.373,46.265,81.127,46.265c51.956,0,94.226-42.27,94.226-94.227C445.371,273.079,403.103,230.81,351.147,230.81z
			 M351.147,395.99c-27.287,0-51.712-15.233-63.74-39.753c-1.955-3.986-6.008-6.512-10.448-6.512h-58.032
			c-1.861,0-3.694,0.447-5.346,1.301l-21.518,11.128l-21.518-11.128c-3.305-1.709-7.464-1.709-10.769,0l-21.518,11.128
			l-19.686-10.182l-24.489-26.673l22.793-24.668h159.94c4.456,0,8.521-2.545,10.467-6.553c11.985-24.67,36.456-39.996,63.862-39.996
			c39.123,0,70.952,31.83,70.952,70.954C422.099,364.159,390.27,395.99,351.147,395.99z"/>
	</g>
</g>
<g>
	<g>
		<path d="M351.147,273.621c-24.348,0-44.782,17.018-50.071,39.78H179.194c-6.427,0-11.637,5.211-11.637,11.637
			s5.21,11.637,11.637,11.637h121.881c5.289,22.762,25.723,39.78,50.071,39.78c28.351,0,51.416-23.064,51.416-51.416
			S379.498,273.621,351.147,273.621z M351.147,353.179c-15.518,0-28.143-12.625-28.143-28.143c0-15.518,12.625-28.143,28.143-28.143
			c15.518,0,28.143,12.625,28.143,28.143C379.289,340.554,366.665,353.179,351.147,353.179z"/>
	</g>
</g>
<g>
	<g>
		<path d="M150.651,322.762c-0.151-0.746-0.372-1.479-0.663-2.177c-0.291-0.699-0.652-1.374-1.071-2.013
			c-0.431-0.628-0.908-1.222-1.443-1.769c-0.547-0.535-1.14-1.012-1.78-1.443c-0.628-0.419-1.303-0.78-2.002-1.071
			c-0.698-0.291-1.431-0.512-2.176-0.663c-1.501-0.303-3.049-0.303-4.55,0c-0.745,0.151-1.478,0.372-2.176,0.663
			c-0.71,0.291-1.385,0.652-2.013,1.071c-0.64,0.431-1.234,0.908-1.769,1.443c-0.535,0.547-1.024,1.139-1.443,1.769
			c-0.419,0.64-0.78,1.315-1.071,2.013c-0.291,0.698-0.512,1.43-0.663,2.176c-0.151,0.755-0.233,1.513-0.233,2.281
			c0,0.755,0.081,1.513,0.233,2.268c0.151,0.746,0.372,1.479,0.663,2.176c0.291,0.699,0.652,1.374,1.071,2.013
			c0.419,0.628,0.908,1.234,1.443,1.769c2.164,2.164,5.167,3.411,8.227,3.411c0.768,0,1.524-0.081,2.281-0.233
			c0.745-0.151,1.478-0.372,2.176-0.663c0.698-0.291,1.373-0.652,2.002-1.071c0.64-0.419,1.234-0.908,1.78-1.443
			c0.535-0.535,1.012-1.139,1.443-1.769c0.419-0.64,0.78-1.315,1.071-2.013c0.291-0.698,0.512-1.43,0.663-2.176
			c0.151-0.755,0.221-1.513,0.221-2.268C150.872,324.275,150.802,323.517,150.651,322.762z"/>
	</g>
</g>
<g>
</g>
<g>
</g>
<g>
</g>
<g>
</g>
<g>
</g>
<g>
</g>
<g>
</g>
<g>
</g>
<g>
</g>
<g>
</g>
<g>
</g>
<g>
</g>
<g>
</g>
<g>
</g>
<g>
</g>
</svg>
