<svg id="Capa_1" enable-background="new 0 0 512 512" height="512" viewBox="0 0 512 512" width="512" xmlns="http://www.w3.org/2000/svg"><g><g><path d="m504.485 158.067c-4.15 0-7.515 3.364-7.515 7.515v331.389h-122.571v-319.864c0-4.151-3.365-7.515-7.515-7.515h-289.947c-4.15 0-7.515 3.364-7.515 7.515v319.864h-54.393v-246.297c0-4.151-3.365-7.515-7.515-7.515s-7.514 3.365-7.514 7.515v253.811c0 4.151 3.365 7.515 7.515 7.515h496.971c4.15 0 7.515-3.364 7.515-7.515v-338.904c-.001-4.15-3.366-7.514-7.516-7.514zm-420.033 26.554h129.944v216.585c0 4.151 3.365 7.515 7.515 7.515s7.515-3.364 7.515-7.515v-216.585h129.944v312.349h-129.945v-65.704c0-4.151-3.365-7.515-7.515-7.515s-7.515 3.364-7.515 7.515v65.704h-129.943z"/><path d="m504.485 0h-496.97c-4.15 0-7.515 3.364-7.515 7.515v213.101c0 4.151 3.365 7.515 7.515 7.515s7.515-3.364 7.515-7.515v-205.586h481.941v120.493c0 4.151 3.364 7.515 7.515 7.515 4.15 0 7.515-3.364 7.515-7.515v-128.008c-.001-4.151-3.366-7.515-7.516-7.515z"/><path d="m276.69 117.702c4.15 0 7.515-3.364 7.515-7.515v-43.631c0-4.151-3.365-7.515-7.515-7.515h-109.559c-4.15 0-7.515 3.364-7.515 7.515v43.631c0 4.151 3.365 7.515 7.515 7.515zm-102.044-43.631h94.529v28.602h-94.529z"/><path d="m408.557 303.932h56.795c5.958 0 9.585-6.943 6.149-11.835l-28.397-40.417c-2.942-4.188-9.355-4.188-12.297 0l-28.398 40.417c-3.437 4.891.189 11.835 6.148 11.835zm28.398-34.86 13.933 19.831h-27.867z"/><path d="m402.409 329.049 28.398 40.416c2.942 4.188 9.355 4.188 12.297 0l28.397-40.416c3.436-4.891-.19-11.835-6.149-11.835h-56.795c-5.958 0-9.585 6.943-6.148 11.835zm48.479 3.195-13.933 19.83-13.933-19.83z"/></g></g></svg>