<svg id="Capa_1" enable-background="new 0 0 512 512" height="512" viewBox="0 0 512 512" width="512" xmlns="http://www.w3.org/2000/svg"><g><path d="m406 0h-300c-8.284 0-15 6.716-15 15v450c0 8.284 6.716 15 15 15h15v17c0 8.284 6.716 15 15 15s15-6.716 15-15v-17h210v17c0 8.284 6.716 15 15 15s15-6.716 15-15v-17h15c8.284 0 15-6.716 15-15v-450c0-8.284-6.716-15-15-15zm-15 30v180h-270v-180zm-270 420v-210h270v210z"/><path d="m166 180c8.284 0 15-6.716 15-15v-75h15c8.284 0 15-6.716 15-15s-6.716-15-15-15h-30c-8.284 0-15 6.716-15 15v90c0 8.284 6.716 15 15 15z"/><path d="m196 270h-30c-8.284 0-15 6.716-15 15v90c0 8.284 6.716 15 15 15s15-6.716 15-15v-75h15c8.284 0 15-6.716 15-15s-6.716-15-15-15z"/></g></svg>