<?xml version="1.0" encoding="iso-8859-1"?>
<!-- Generator: Adobe Illustrator 19.0.0, SVG Export Plug-In . SVG Version: 6.00 Build 0)  -->
<svg version="1.1" id="Capa_1" xmlns="http://www.w3.org/2000/svg" xmlns:xlink="http://www.w3.org/1999/xlink" x="0px" y="0px"
	 viewBox="0 0 512 512" style="enable-background:new 0 0 512 512;" xml:space="preserve">
<g>
	<g>
		<path d="M172.764,230.457c-10.576-10.577-24.638-16.402-39.597-16.402c-14.959,0-29.021,5.825-39.599,16.402
			c-12.385,12.386-18.192,29.461-15.934,46.849c0.712,5.478,5.738,9.34,11.205,8.629c5.478-0.712,9.34-5.729,8.629-11.205
			c-1.454-11.186,2.279-22.167,10.242-30.13c6.799-6.799,15.84-10.544,25.456-10.544c9.616,0,18.657,3.745,25.456,10.544
			c6.8,6.799,10.545,15.84,10.545,25.456c0,9.616-3.745,18.656-10.545,25.456c-8.162,8.162-19.403,11.858-30.831,10.145
			c-5.462-0.813-10.553,2.946-11.372,8.407c-0.818,5.462,2.945,10.553,8.407,11.372c2.745,0.411,5.498,0.613,8.241,0.613
			c14.753,0,29.151-5.849,39.697-16.395c10.577-10.577,16.402-24.64,16.402-39.599C189.166,255.097,183.341,241.034,172.764,230.457
			z"/>
	</g>
</g>
<g>
	<g>
		<path d="M107.71,295.513l-0.092-0.093c-3.906-3.904-10.236-3.904-14.143,0c-3.905,3.905-3.905,10.237,0,14.143l0.093,0.093
			c1.953,1.952,4.512,2.929,7.071,2.929c2.559,0,5.118-0.977,7.071-2.929C111.615,305.751,111.615,299.419,107.71,295.513z"/>
	</g>
</g>
<g>
	<g>
		<path d="M133.167,96.035c-18.748,0-34,15.252-34,34c0,18.748,15.252,34,34,34c18.748,0,34-15.252,34-34
			C167.167,111.287,151.915,96.035,133.167,96.035z M133.167,144.035c-7.72,0-14-6.28-14-14c0-7.72,6.28-14,14-14
			c7.72,0,14,6.28,14,14C147.167,137.755,140.887,144.035,133.167,144.035z"/>
	</g>
</g>
<g>
	<g>
		<path d="M133.167,40c-13.233,0-24,10.767-24,24c0,13.233,10.767,24,24,24c13.233,0,24-10.767,24-24
			C157.167,50.767,146.4,40,133.167,40z M133.167,68c-2.206,0-4-1.794-4-4s1.794-4,4-4s4,1.794,4,4S135.373,68,133.167,68z"/>
	</g>
</g>
<g>
	<g>
		<path d="M295.167,110.467c-5.522,0-10,4.477-10,10v108.992c0,5.523,4.478,10,10,10c5.522,0,10-4.477,10-10V120.467
			C305.167,114.944,300.689,110.467,295.167,110.467z"/>
	</g>
</g>
<g>
	<g>
		<path d="M302.236,260.46c-1.859-1.86-4.439-2.93-7.069-2.93s-5.21,1.069-7.07,2.93c-1.86,1.87-2.93,4.439-2.93,7.07
			c0,2.63,1.069,5.21,2.93,7.069c1.86,1.861,4.44,2.931,7.07,2.931s5.21-1.07,7.069-2.931c1.86-1.859,2.931-4.43,2.931-7.069
			C305.167,264.899,304.097,262.319,302.236,260.46z"/>
	</g>
</g>
<g>
	<g>
		<path d="M496.833,194.299h-5c-5.522,0-10,4.477-10,10c0,5.523,4.478,10,10,10h5c5.522,0,10-4.477,10-10
			C506.833,198.776,502.355,194.299,496.833,194.299z"/>
	</g>
</g>
<g>
	<g>
		<path d="M496.833,157.632h-5c-5.522,0-10,4.477-10,10c0,5.523,4.478,10,10,10h5c5.522,0,10-4.477,10-10
			C506.833,162.109,502.355,157.632,496.833,157.632z"/>
	</g>
</g>
<g>
	<g>
		<path d="M496.833,120.966h-5c-5.522,0-10,4.477-10,10s4.478,10,10,10h5c5.522,0,10-4.477,10-10S502.355,120.966,496.833,120.966z"
			/>
	</g>
</g>
<g>
	<g>
		<path d="M461.834,194.298h-5c-0.11,0-0.216,0.013-0.325,0.016v-16.7c0.109,0.003,0.215,0.016,0.325,0.016h5
			c5.522,0,10-4.477,10-10s-4.478-10-10-10h-5c-0.11,0-0.216,0.013-0.325,0.016v-16.699c0.108,0.006,0.214,0.019,0.324,0.019h5
			c5.522,0,10-4.477,10-10s-4.478-10-10-10h-5c-0.11,0-0.216,0.013-0.325,0.016v-16.069c0-5.199-2.238-10.15-6.143-13.586
			c-3.908-3.44-9.113-5.031-14.282-4.373c-40.429,5.179-70.916,39.863-70.916,80.678V312.05c0,12.497,8.236,23.105,19.564,26.687
			v100.096c0,29.316-23.851,53.167-53.167,53.167h-25.167c-29.316,0-53.167-23.851-53.167-53.167V388h35.937
			c33.084,0,60-26.916,60-60V60c0-33.084-26.916-60-60-60h-92h-128h-4c-33.084,0-60,26.916-60,60v268c0,33.084,26.916,60,60,60
			H233.23v50.833c0,40.345,32.822,73.167,73.167,73.167h25.167c40.345,0,73.167-32.822,73.167-73.167V337.512
			c9.661-4.414,16.396-14.164,16.396-25.463v-67.125c4.796,1.575,9.793,2.723,14.956,3.385c0.769,0.099,1.538,0.147,2.304,0.147
			c4.383,0,8.65-1.59,11.979-4.519c3.903-3.436,6.143-8.388,6.143-13.587v-16.068c0.109,0.003,0.215,0.016,0.325,0.016h5
			c5.522,0,10-4.477,10-10S467.356,194.298,461.834,194.298z M79.167,20h108v138.5c0,10.752-8.748,19.5-19.5,19.5h-69
			c-10.752,0-19.5-8.748-19.5-19.5V20z M65.167,368c-22.056,0-40-17.944-40-40V60c0-20.017,14.78-36.645,34-39.549V158.5
			c0,21.78,17.72,39.5,39.5,39.5h69c21.78,0,39.5-17.72,39.5-39.5V20h82c22.056,0,40,17.944,40,40v268c0,22.056-17.944,40-40,40
			H65.167z M401.127,312.05c0,4.402-3.579,7.983-7.978,7.983c-4.401,0-7.982-3.581-7.982-7.983v-91.068
			c4.667,5.37,10.031,10.126,15.96,14.13V312.05z M436.508,228.164c-29.418-4.814-51.341-30.466-51.341-60.531
			s21.923-55.717,51.341-60.531V228.164z"/>
	</g>
</g>
<g>
</g>
<g>
</g>
<g>
</g>
<g>
</g>
<g>
</g>
<g>
</g>
<g>
</g>
<g>
</g>
<g>
</g>
<g>
</g>
<g>
</g>
<g>
</g>
<g>
</g>
<g>
</g>
<g>
</g>
</svg>
