<svg width="288" height="210.00000000000003" xmlns="http://www.w3.org/2000/svg">

 <g>
  <title>background</title>
  <rect fill="none" id="canvas_background" height="212" width="290" y="-1" x="-1"/>
 </g>
 <g>
  <title>Layer 1</title>
  <path id="svg_1" d="m249,69.595249c-12,0 -12,18 0,18s12,-18 0,-18zm-9,63c0,12 18,12 18,0l0,-30c0,-12 -18,-12 -18,0l0,30zm-21,-63c12,0 12,18 0,18l-33,0l0,12l21,0c12,0 12,18 0,18l-21,0l0,15c0,12 -18,12 -18,0l0,-54c0,-5 4,-9 9,-9l42,0zm69,18l0,36c0,26 -21,48 -48,48l-18,0c-19,22 -47,36 -78,36s-59,-14 -78,-36l-18,0c-26,0 -48,-21 -48,-48l0,-36c0,-27 22,-48 48,-48l18,0c19,-22 47,-36 78,-36s59,14 78,36l18,0c27,0 48,22 48,48zm-165,-18c-12,0 -12,18 0,18s12,-18 0,-18zm-9,63c0,12 18,12 18,0l0,-30c0,-12 -18,-12 -18,0l0,30zm-27,1l14,-51c4,-15 -14,-17 -17,-6l-6,22l-6,-22c-2,-9 -16,-9 -18,0l-6,22l-6,-22c-3,-10 -21,-9 -17,6l14,51c3,10 15,11 18,0l6,-21l6,21c3,11 15,11 18,0zm153,-82l-63,0c-15,0 -27,12 -27,27l0,54c0,12 -8,25 -25,27l115,0c20,0 36,-16 36,-36l0,-36c0,-20 -16,-36 -36,-36z"/>
 </g>
</svg>